<mxfile host="app.diagrams.net" modified="2024-01-28T04:56:06.859Z" agent="Mozilla/5.0 (Windows NT 10.0; Win64; x64) AppleWebKit/537.36 (KHTML, like Gecko) Chrome/120.0.0.0 Safari/537.36 Edg/120.0.0.0" etag="f_-TgPMa1c-3_TFgEoXn" version="23.0.2" type="github">
  <diagram name="第 1 页" id="6oYLE7ZlwKqNFQF_2LEd">
    <mxGraphModel dx="3338" dy="1864" grid="1" gridSize="10" guides="1" tooltips="1" connect="1" arrows="1" fold="1" page="1" pageScale="1" pageWidth="827" pageHeight="1169" math="1" shadow="0">
      <root>
        <mxCell id="0" />
        <mxCell id="1" parent="0" />
        <mxCell id="Igo0mSsp1XI9tSq8-3n3-30" style="edgeStyle=none;shape=connector;rounded=0;orthogonalLoop=1;jettySize=auto;html=1;exitX=0.5;exitY=0;exitDx=0;exitDy=0;entryX=0.5;entryY=1;entryDx=0;entryDy=0;labelBackgroundColor=none;strokeColor=default;align=center;verticalAlign=middle;fontFamily=Helvetica;fontSize=11;fontColor=default;startArrow=classic;startFill=1;endArrow=none;endFill=0;" parent="1" source="Igo0mSsp1XI9tSq8-3n3-7" target="Igo0mSsp1XI9tSq8-3n3-19" edge="1">
          <mxGeometry relative="1" as="geometry" />
        </mxCell>
        <mxCell id="Igo0mSsp1XI9tSq8-3n3-7" value="\[F_{10} F_{11} F_{13}\]" style="ellipse;whiteSpace=wrap;html=1;fontSize=16;labelBackgroundColor=none;fontColor=default;fillColor=none;" parent="1" vertex="1">
          <mxGeometry x="920" y="480" width="90" height="70" as="geometry" />
        </mxCell>
        <mxCell id="Igo0mSsp1XI9tSq8-3n3-25" style="edgeStyle=none;shape=connector;rounded=0;orthogonalLoop=1;jettySize=auto;html=1;exitX=0.5;exitY=0;exitDx=0;exitDy=0;entryX=0.25;entryY=1;entryDx=0;entryDy=0;labelBackgroundColor=none;strokeColor=default;align=center;verticalAlign=middle;fontFamily=Helvetica;fontSize=11;fontColor=default;startArrow=classic;startFill=1;endArrow=none;endFill=0;" parent="1" source="Igo0mSsp1XI9tSq8-3n3-8" target="Igo0mSsp1XI9tSq8-3n3-19" edge="1">
          <mxGeometry relative="1" as="geometry" />
        </mxCell>
        <mxCell id="Igo0mSsp1XI9tSq8-3n3-8" value="\[F_0\]" style="ellipse;whiteSpace=wrap;html=1;fontSize=16;labelBackgroundColor=none;fontColor=default;fillColor=none;" parent="1" vertex="1">
          <mxGeometry x="200" y="480" width="80" height="60" as="geometry" />
        </mxCell>
        <mxCell id="Igo0mSsp1XI9tSq8-3n3-26" style="edgeStyle=none;shape=connector;rounded=0;orthogonalLoop=1;jettySize=auto;html=1;exitX=0.5;exitY=0;exitDx=0;exitDy=0;entryX=0.25;entryY=1;entryDx=0;entryDy=0;labelBackgroundColor=none;strokeColor=default;align=center;verticalAlign=middle;fontFamily=Helvetica;fontSize=11;fontColor=default;startArrow=classic;startFill=1;endArrow=none;endFill=0;" parent="1" source="Igo0mSsp1XI9tSq8-3n3-9" target="Igo0mSsp1XI9tSq8-3n3-19" edge="1">
          <mxGeometry relative="1" as="geometry" />
        </mxCell>
        <mxCell id="Igo0mSsp1XI9tSq8-3n3-9" value="\[F_2 F_{8}\]" style="ellipse;whiteSpace=wrap;html=1;fontSize=16;labelBackgroundColor=none;fontColor=default;fillColor=none;" parent="1" vertex="1">
          <mxGeometry x="430" y="480" width="90" height="70" as="geometry" />
        </mxCell>
        <mxCell id="Igo0mSsp1XI9tSq8-3n3-34" style="edgeStyle=none;shape=connector;rounded=0;orthogonalLoop=1;jettySize=auto;html=1;exitX=0.5;exitY=0;exitDx=0;exitDy=0;entryX=0.5;entryY=1;entryDx=0;entryDy=0;labelBackgroundColor=none;strokeColor=default;align=center;verticalAlign=middle;fontFamily=Helvetica;fontSize=11;fontColor=default;startArrow=classic;startFill=1;endArrow=none;endFill=0;" parent="1" source="Igo0mSsp1XI9tSq8-3n3-10" target="Igo0mSsp1XI9tSq8-3n3-19" edge="1">
          <mxGeometry relative="1" as="geometry" />
        </mxCell>
        <mxCell id="Igo0mSsp1XI9tSq8-3n3-10" value="\[F_5 F_{6}\]" style="ellipse;whiteSpace=wrap;html=1;fontSize=16;labelBackgroundColor=none;fontColor=default;fillColor=none;" parent="1" vertex="1">
          <mxGeometry x="670" y="480" width="90" height="70" as="geometry" />
        </mxCell>
        <mxCell id="Igo0mSsp1XI9tSq8-3n3-29" style="edgeStyle=none;shape=connector;rounded=0;orthogonalLoop=1;jettySize=auto;html=1;exitX=0.5;exitY=0;exitDx=0;exitDy=0;entryX=0.5;entryY=1;entryDx=0;entryDy=0;labelBackgroundColor=none;strokeColor=default;align=center;verticalAlign=middle;fontFamily=Helvetica;fontSize=11;fontColor=default;startArrow=classic;startFill=1;endArrow=none;endFill=0;" parent="1" source="Igo0mSsp1XI9tSq8-3n3-11" target="Igo0mSsp1XI9tSq8-3n3-19" edge="1">
          <mxGeometry relative="1" as="geometry" />
        </mxCell>
        <mxCell id="Igo0mSsp1XI9tSq8-3n3-11" value="\[F_7 F_{9}\]" style="ellipse;whiteSpace=wrap;html=1;fontSize=16;labelBackgroundColor=none;fontColor=default;fillColor=none;" parent="1" vertex="1">
          <mxGeometry x="800" y="480" width="90" height="70" as="geometry" />
        </mxCell>
        <mxCell id="Igo0mSsp1XI9tSq8-3n3-24" style="edgeStyle=none;shape=connector;rounded=0;orthogonalLoop=1;jettySize=auto;html=1;exitX=0.5;exitY=0;exitDx=0;exitDy=0;entryX=0.25;entryY=1;entryDx=0;entryDy=0;labelBackgroundColor=none;strokeColor=default;align=center;verticalAlign=middle;fontFamily=Helvetica;fontSize=11;fontColor=default;startArrow=classic;startFill=1;endArrow=none;endFill=0;" parent="1" source="Igo0mSsp1XI9tSq8-3n3-12" target="Igo0mSsp1XI9tSq8-3n3-19" edge="1">
          <mxGeometry relative="1" as="geometry" />
        </mxCell>
        <mxCell id="Igo0mSsp1XI9tSq8-3n3-12" value="\[F_1 F_3\]" style="ellipse;whiteSpace=wrap;html=1;fontSize=16;labelBackgroundColor=none;fontColor=default;fillColor=none;" parent="1" vertex="1">
          <mxGeometry x="310" y="480" width="90" height="70" as="geometry" />
        </mxCell>
        <mxCell id="Igo0mSsp1XI9tSq8-3n3-31" style="edgeStyle=none;shape=connector;rounded=0;orthogonalLoop=1;jettySize=auto;html=1;exitX=0.5;exitY=0;exitDx=0;exitDy=0;entryX=0.75;entryY=1;entryDx=0;entryDy=0;labelBackgroundColor=none;strokeColor=default;align=center;verticalAlign=middle;fontFamily=Helvetica;fontSize=11;fontColor=default;startArrow=classic;startFill=1;endArrow=none;endFill=0;" parent="1" source="Igo0mSsp1XI9tSq8-3n3-13" target="Igo0mSsp1XI9tSq8-3n3-19" edge="1">
          <mxGeometry relative="1" as="geometry" />
        </mxCell>
        <mxCell id="Igo0mSsp1XI9tSq8-3n3-13" value="\[F_{12}\]" style="ellipse;whiteSpace=wrap;html=1;fontSize=16;labelBackgroundColor=none;fontColor=default;fillColor=none;" parent="1" vertex="1">
          <mxGeometry x="1042" y="480" width="79" height="60" as="geometry" />
        </mxCell>
        <mxCell id="Igo0mSsp1XI9tSq8-3n3-32" style="edgeStyle=none;shape=connector;rounded=0;orthogonalLoop=1;jettySize=auto;html=1;exitX=0.5;exitY=0;exitDx=0;exitDy=0;entryX=0.75;entryY=1;entryDx=0;entryDy=0;labelBackgroundColor=none;strokeColor=default;align=center;verticalAlign=middle;fontFamily=Helvetica;fontSize=11;fontColor=default;startArrow=classic;startFill=1;endArrow=none;endFill=0;" parent="1" source="Igo0mSsp1XI9tSq8-3n3-14" target="Igo0mSsp1XI9tSq8-3n3-19" edge="1">
          <mxGeometry relative="1" as="geometry" />
        </mxCell>
        <mxCell id="Igo0mSsp1XI9tSq8-3n3-14" value="\[F_{14}\]" style="ellipse;whiteSpace=wrap;html=1;fontSize=16;labelBackgroundColor=none;fontColor=default;fillColor=none;" parent="1" vertex="1">
          <mxGeometry x="1161" y="480" width="80" height="60" as="geometry" />
        </mxCell>
        <mxCell id="Igo0mSsp1XI9tSq8-3n3-35" style="edgeStyle=none;shape=connector;rounded=0;orthogonalLoop=1;jettySize=auto;html=1;exitX=0.5;exitY=0;exitDx=0;exitDy=0;entryX=0.75;entryY=1;entryDx=0;entryDy=0;labelBackgroundColor=none;strokeColor=default;align=center;verticalAlign=middle;fontFamily=Helvetica;fontSize=11;fontColor=default;startArrow=classic;startFill=1;endArrow=none;endFill=0;" parent="1" source="Igo0mSsp1XI9tSq8-3n3-15" target="Igo0mSsp1XI9tSq8-3n3-19" edge="1">
          <mxGeometry relative="1" as="geometry" />
        </mxCell>
        <mxCell id="Igo0mSsp1XI9tSq8-3n3-15" value="\[F_{15}\]" style="ellipse;whiteSpace=wrap;html=1;fontSize=16;labelBackgroundColor=none;fontColor=default;fillColor=none;" parent="1" vertex="1">
          <mxGeometry x="1280" y="480" width="80" height="60" as="geometry" />
        </mxCell>
        <mxCell id="Igo0mSsp1XI9tSq8-3n3-17" value="" style="group;labelBackgroundColor=none;fontColor=default;fillColor=none;gradientColor=none;" parent="1" vertex="1" connectable="0">
          <mxGeometry x="680" y="120" width="200" height="160" as="geometry" />
        </mxCell>
        <mxCell id="Igo0mSsp1XI9tSq8-3n3-6" value="" style="ellipse;whiteSpace=wrap;html=1;labelBackgroundColor=none;fontColor=default;fillColor=none;" parent="Igo0mSsp1XI9tSq8-3n3-17" vertex="1">
          <mxGeometry width="200" height="160" as="geometry" />
        </mxCell>
        <mxCell id="Igo0mSsp1XI9tSq8-3n3-3" value="\[F_{11} F_{12} F_{13} F_{14} F_{15}\]" style="text;html=1;strokeColor=none;fillColor=none;align=center;verticalAlign=middle;whiteSpace=wrap;rounded=0;fontSize=16;labelBackgroundColor=none;fontColor=default;" parent="Igo0mSsp1XI9tSq8-3n3-17" vertex="1">
          <mxGeometry x="35" y="100" width="130" height="30" as="geometry" />
        </mxCell>
        <mxCell id="Igo0mSsp1XI9tSq8-3n3-4" value="&lt;font style=&quot;font-size: 16px;&quot;&gt;\[F_5 F_6 F_7&amp;nbsp;F_8 F_9 F_{10} \]&lt;/font&gt;" style="text;html=1;strokeColor=none;fillColor=none;align=center;verticalAlign=middle;whiteSpace=wrap;rounded=0;fontSize=16;labelBackgroundColor=none;fontColor=default;" parent="Igo0mSsp1XI9tSq8-3n3-17" vertex="1">
          <mxGeometry x="40" y="60" width="130" height="30" as="geometry" />
        </mxCell>
        <mxCell id="Igo0mSsp1XI9tSq8-3n3-5" value="\[F_0&amp;nbsp; F_1&amp;nbsp; F_2 F_3 F_4 \]" style="text;html=1;strokeColor=none;fillColor=none;align=center;verticalAlign=middle;whiteSpace=wrap;rounded=0;fontSize=16;labelBackgroundColor=none;fontColor=default;" parent="Igo0mSsp1XI9tSq8-3n3-17" vertex="1">
          <mxGeometry x="55" y="20" width="100" height="30" as="geometry" />
        </mxCell>
        <mxCell id="Igo0mSsp1XI9tSq8-3n3-27" style="edgeStyle=none;shape=connector;rounded=0;orthogonalLoop=1;jettySize=auto;html=1;exitX=0.5;exitY=0;exitDx=0;exitDy=0;entryX=0.5;entryY=1;entryDx=0;entryDy=0;labelBackgroundColor=none;strokeColor=default;align=center;verticalAlign=middle;fontFamily=Helvetica;fontSize=11;fontColor=default;startArrow=classic;startFill=1;endArrow=none;endFill=0;" parent="1" source="Igo0mSsp1XI9tSq8-3n3-18" target="Igo0mSsp1XI9tSq8-3n3-19" edge="1">
          <mxGeometry relative="1" as="geometry" />
        </mxCell>
        <mxCell id="Igo0mSsp1XI9tSq8-3n3-18" value="\[F_4\]" style="ellipse;whiteSpace=wrap;html=1;fontSize=16;labelBackgroundColor=none;fontColor=default;fillColor=none;" parent="1" vertex="1">
          <mxGeometry x="560" y="480" width="80" height="60" as="geometry" />
        </mxCell>
        <mxCell id="Igo0mSsp1XI9tSq8-3n3-19" value="\[T_6\]" style="whiteSpace=wrap;html=1;fontSize=16;labelBackgroundColor=none;fontColor=default;fillColor=none;" parent="1" vertex="1">
          <mxGeometry x="720" y="320" width="120" height="40" as="geometry" />
        </mxCell>
        <mxCell id="Igo0mSsp1XI9tSq8-3n3-20" value="" style="edgeStyle=elbowEdgeStyle;rounded=0;orthogonalLoop=1;jettySize=auto;html=1;labelBackgroundColor=none;fontColor=default;" parent="1" source="Igo0mSsp1XI9tSq8-3n3-6" target="Igo0mSsp1XI9tSq8-3n3-19" edge="1">
          <mxGeometry relative="1" as="geometry" />
        </mxCell>
        <mxCell id="Igo0mSsp1XI9tSq8-3n3-68" style="edgeStyle=none;shape=connector;rounded=0;orthogonalLoop=1;jettySize=auto;html=1;exitX=0.5;exitY=0;exitDx=0;exitDy=0;entryX=0.5;entryY=1;entryDx=0;entryDy=0;labelBackgroundColor=none;strokeColor=default;align=center;verticalAlign=middle;fontFamily=Helvetica;fontSize=11;fontColor=default;startArrow=classic;startFill=1;endArrow=none;endFill=0;" parent="1" source="Igo0mSsp1XI9tSq8-3n3-37" target="Igo0mSsp1XI9tSq8-3n3-60" edge="1">
          <mxGeometry relative="1" as="geometry" />
        </mxCell>
        <mxCell id="Igo0mSsp1XI9tSq8-3n3-37" value="\[F_3\]" style="ellipse;whiteSpace=wrap;html=1;fontSize=16;labelBackgroundColor=none;fontColor=default;fillColor=none;" parent="1" vertex="1">
          <mxGeometry x="160" y="720" width="80" height="60" as="geometry" />
        </mxCell>
        <mxCell id="Igo0mSsp1XI9tSq8-3n3-66" style="edgeStyle=none;shape=connector;rounded=0;orthogonalLoop=1;jettySize=auto;html=1;exitX=0.5;exitY=0;exitDx=0;exitDy=0;entryX=0.5;entryY=1;entryDx=0;entryDy=0;labelBackgroundColor=none;strokeColor=default;align=center;verticalAlign=middle;fontFamily=Helvetica;fontSize=11;fontColor=default;startArrow=classic;startFill=1;endArrow=none;endFill=0;" parent="1" source="Igo0mSsp1XI9tSq8-3n3-38" target="Igo0mSsp1XI9tSq8-3n3-60" edge="1">
          <mxGeometry relative="1" as="geometry" />
        </mxCell>
        <mxCell id="Igo0mSsp1XI9tSq8-3n3-38" value="\[F_1\]" style="ellipse;whiteSpace=wrap;html=1;fontSize=16;labelBackgroundColor=none;fontColor=default;fillColor=none;" parent="1" vertex="1">
          <mxGeometry x="40" y="720" width="80" height="60" as="geometry" />
        </mxCell>
        <mxCell id="Igo0mSsp1XI9tSq8-3n3-69" style="edgeStyle=none;shape=connector;rounded=0;orthogonalLoop=1;jettySize=auto;html=1;exitX=0.5;exitY=0;exitDx=0;exitDy=0;entryX=0.5;entryY=1;entryDx=0;entryDy=0;labelBackgroundColor=none;strokeColor=default;align=center;verticalAlign=middle;fontFamily=Helvetica;fontSize=11;fontColor=default;startArrow=classic;startFill=1;endArrow=none;endFill=0;" parent="1" source="Igo0mSsp1XI9tSq8-3n3-39" target="Igo0mSsp1XI9tSq8-3n3-61" edge="1">
          <mxGeometry relative="1" as="geometry" />
        </mxCell>
        <mxCell id="Igo0mSsp1XI9tSq8-3n3-39" value="\[F_2\]" style="ellipse;whiteSpace=wrap;html=1;fontSize=16;labelBackgroundColor=none;fontColor=default;fillColor=none;" parent="1" vertex="1">
          <mxGeometry x="280" y="720" width="80" height="60" as="geometry" />
        </mxCell>
        <mxCell id="Igo0mSsp1XI9tSq8-3n3-71" style="edgeStyle=none;shape=connector;rounded=0;orthogonalLoop=1;jettySize=auto;html=1;exitX=0.5;exitY=0;exitDx=0;exitDy=0;entryX=0.5;entryY=1;entryDx=0;entryDy=0;labelBackgroundColor=none;strokeColor=default;align=center;verticalAlign=middle;fontFamily=Helvetica;fontSize=11;fontColor=default;startArrow=classic;startFill=1;endArrow=none;endFill=0;" parent="1" source="Igo0mSsp1XI9tSq8-3n3-40" target="Igo0mSsp1XI9tSq8-3n3-61" edge="1">
          <mxGeometry relative="1" as="geometry" />
        </mxCell>
        <mxCell id="Igo0mSsp1XI9tSq8-3n3-40" value="\[F_8\]" style="ellipse;whiteSpace=wrap;html=1;fontSize=16;labelBackgroundColor=none;fontColor=default;fillColor=none;" parent="1" vertex="1">
          <mxGeometry x="400" y="720" width="80" height="60" as="geometry" />
        </mxCell>
        <mxCell id="Igo0mSsp1XI9tSq8-3n3-75" style="edgeStyle=none;shape=connector;rounded=0;orthogonalLoop=1;jettySize=auto;html=1;exitX=0.5;exitY=0;exitDx=0;exitDy=0;entryX=0.5;entryY=1;entryDx=0;entryDy=0;labelBackgroundColor=none;strokeColor=default;align=center;verticalAlign=middle;fontFamily=Helvetica;fontSize=11;fontColor=default;startArrow=classic;startFill=1;endArrow=none;endFill=0;" parent="1" source="Igo0mSsp1XI9tSq8-3n3-41" target="Igo0mSsp1XI9tSq8-3n3-62" edge="1">
          <mxGeometry relative="1" as="geometry" />
        </mxCell>
        <mxCell id="Igo0mSsp1XI9tSq8-3n3-41" value="\[F_6\]" style="ellipse;whiteSpace=wrap;html=1;fontSize=16;labelBackgroundColor=none;fontColor=default;fillColor=none;" parent="1" vertex="1">
          <mxGeometry x="520" y="720" width="80" height="60" as="geometry" />
        </mxCell>
        <mxCell id="Igo0mSsp1XI9tSq8-3n3-76" style="edgeStyle=none;shape=connector;rounded=0;orthogonalLoop=1;jettySize=auto;html=1;exitX=0.5;exitY=0;exitDx=0;exitDy=0;entryX=0.5;entryY=1;entryDx=0;entryDy=0;labelBackgroundColor=none;strokeColor=default;align=center;verticalAlign=middle;fontFamily=Helvetica;fontSize=11;fontColor=default;startArrow=classic;startFill=1;endArrow=none;endFill=0;" parent="1" source="Igo0mSsp1XI9tSq8-3n3-42" target="Igo0mSsp1XI9tSq8-3n3-62" edge="1">
          <mxGeometry relative="1" as="geometry" />
        </mxCell>
        <mxCell id="Igo0mSsp1XI9tSq8-3n3-42" value="\[F_5\]" style="ellipse;whiteSpace=wrap;html=1;fontSize=16;labelBackgroundColor=none;fontColor=default;fillColor=none;" parent="1" vertex="1">
          <mxGeometry x="640" y="720" width="80" height="60" as="geometry" />
        </mxCell>
        <mxCell id="Igo0mSsp1XI9tSq8-3n3-77" style="edgeStyle=none;shape=connector;rounded=0;orthogonalLoop=1;jettySize=auto;html=1;exitX=0.5;exitY=0;exitDx=0;exitDy=0;entryX=0.5;entryY=1;entryDx=0;entryDy=0;labelBackgroundColor=none;strokeColor=default;align=center;verticalAlign=middle;fontFamily=Helvetica;fontSize=11;fontColor=default;startArrow=classic;startFill=1;endArrow=none;endFill=0;" parent="1" source="Igo0mSsp1XI9tSq8-3n3-43" target="Igo0mSsp1XI9tSq8-3n3-63" edge="1">
          <mxGeometry relative="1" as="geometry" />
        </mxCell>
        <mxCell id="Igo0mSsp1XI9tSq8-3n3-43" value="\[F_7\]" style="ellipse;whiteSpace=wrap;html=1;fontSize=16;labelBackgroundColor=none;fontColor=default;fillColor=none;" parent="1" vertex="1">
          <mxGeometry x="760" y="720" width="80" height="60" as="geometry" />
        </mxCell>
        <mxCell id="Igo0mSsp1XI9tSq8-3n3-78" style="edgeStyle=none;shape=connector;rounded=0;orthogonalLoop=1;jettySize=auto;html=1;exitX=0.5;exitY=0;exitDx=0;exitDy=0;entryX=0.5;entryY=1;entryDx=0;entryDy=0;labelBackgroundColor=none;strokeColor=default;align=center;verticalAlign=middle;fontFamily=Helvetica;fontSize=11;fontColor=default;startArrow=classic;startFill=1;endArrow=none;endFill=0;" parent="1" source="Igo0mSsp1XI9tSq8-3n3-44" target="Igo0mSsp1XI9tSq8-3n3-63" edge="1">
          <mxGeometry relative="1" as="geometry" />
        </mxCell>
        <mxCell id="Igo0mSsp1XI9tSq8-3n3-44" value="\[F_9\]" style="ellipse;whiteSpace=wrap;html=1;fontSize=16;labelBackgroundColor=none;fontColor=default;fillColor=none;" parent="1" vertex="1">
          <mxGeometry x="880" y="720" width="80" height="60" as="geometry" />
        </mxCell>
        <mxCell id="Igo0mSsp1XI9tSq8-3n3-81" style="edgeStyle=none;shape=connector;rounded=0;orthogonalLoop=1;jettySize=auto;html=1;exitX=0.5;exitY=0;exitDx=0;exitDy=0;entryX=0.5;entryY=1;entryDx=0;entryDy=0;labelBackgroundColor=none;strokeColor=default;align=center;verticalAlign=middle;fontFamily=Helvetica;fontSize=11;fontColor=default;startArrow=classic;startFill=1;endArrow=none;endFill=0;" parent="1" source="Igo0mSsp1XI9tSq8-3n3-45" target="Igo0mSsp1XI9tSq8-3n3-64" edge="1">
          <mxGeometry relative="1" as="geometry" />
        </mxCell>
        <mxCell id="Igo0mSsp1XI9tSq8-3n3-45" value="\[F_{10}\]" style="ellipse;whiteSpace=wrap;html=1;fontSize=16;labelBackgroundColor=none;fontColor=default;fillColor=none;" parent="1" vertex="1">
          <mxGeometry x="1000" y="720" width="80" height="60" as="geometry" />
        </mxCell>
        <mxCell id="Igo0mSsp1XI9tSq8-3n3-83" style="edgeStyle=none;shape=connector;rounded=0;orthogonalLoop=1;jettySize=auto;html=1;exitX=0.5;exitY=0;exitDx=0;exitDy=0;entryX=0.5;entryY=1;entryDx=0;entryDy=0;labelBackgroundColor=none;strokeColor=default;align=center;verticalAlign=middle;fontFamily=Helvetica;fontSize=11;fontColor=default;startArrow=classic;startFill=1;endArrow=none;endFill=0;" parent="1" source="Igo0mSsp1XI9tSq8-3n3-46" target="Igo0mSsp1XI9tSq8-3n3-64" edge="1">
          <mxGeometry relative="1" as="geometry" />
        </mxCell>
        <mxCell id="Igo0mSsp1XI9tSq8-3n3-46" value="\[F_{11}\]" style="ellipse;whiteSpace=wrap;html=1;fontSize=16;labelBackgroundColor=none;fontColor=default;fillColor=none;" parent="1" vertex="1">
          <mxGeometry x="1121" y="720" width="80" height="60" as="geometry" />
        </mxCell>
        <mxCell id="Igo0mSsp1XI9tSq8-3n3-84" style="edgeStyle=none;shape=connector;rounded=0;orthogonalLoop=1;jettySize=auto;html=1;exitX=0.5;exitY=0;exitDx=0;exitDy=0;entryX=0.5;entryY=1;entryDx=0;entryDy=0;labelBackgroundColor=none;strokeColor=default;align=center;verticalAlign=middle;fontFamily=Helvetica;fontSize=11;fontColor=default;startArrow=classic;startFill=1;endArrow=none;endFill=0;" parent="1" source="Igo0mSsp1XI9tSq8-3n3-47" target="Igo0mSsp1XI9tSq8-3n3-64" edge="1">
          <mxGeometry relative="1" as="geometry" />
        </mxCell>
        <mxCell id="Igo0mSsp1XI9tSq8-3n3-47" value="\[F_{13}\]" style="ellipse;whiteSpace=wrap;html=1;fontSize=16;labelBackgroundColor=none;fontColor=default;fillColor=none;" parent="1" vertex="1">
          <mxGeometry x="1241" y="720" width="80" height="60" as="geometry" />
        </mxCell>
        <mxCell id="Igo0mSsp1XI9tSq8-3n3-65" style="edgeStyle=none;shape=connector;rounded=0;orthogonalLoop=1;jettySize=auto;html=1;exitX=0.5;exitY=0;exitDx=0;exitDy=0;entryX=0.5;entryY=1;entryDx=0;entryDy=0;labelBackgroundColor=none;strokeColor=default;align=center;verticalAlign=middle;fontFamily=Helvetica;fontSize=11;fontColor=default;startArrow=classic;startFill=1;endArrow=none;endFill=0;" parent="1" source="Igo0mSsp1XI9tSq8-3n3-60" target="Igo0mSsp1XI9tSq8-3n3-12" edge="1">
          <mxGeometry relative="1" as="geometry" />
        </mxCell>
        <mxCell id="Igo0mSsp1XI9tSq8-3n3-60" value="\[T_4\]" style="whiteSpace=wrap;html=1;fontSize=16;labelBackgroundColor=none;fontColor=default;fillColor=none;" parent="1" vertex="1">
          <mxGeometry x="120" y="600" width="120" height="40" as="geometry" />
        </mxCell>
        <mxCell id="Igo0mSsp1XI9tSq8-3n3-73" style="edgeStyle=none;shape=connector;rounded=0;orthogonalLoop=1;jettySize=auto;html=1;exitX=0.5;exitY=0;exitDx=0;exitDy=0;entryX=0.5;entryY=1;entryDx=0;entryDy=0;labelBackgroundColor=none;strokeColor=default;align=center;verticalAlign=middle;fontFamily=Helvetica;fontSize=11;fontColor=default;startArrow=classic;startFill=1;endArrow=none;endFill=0;" parent="1" source="Igo0mSsp1XI9tSq8-3n3-61" target="Igo0mSsp1XI9tSq8-3n3-9" edge="1">
          <mxGeometry relative="1" as="geometry" />
        </mxCell>
        <mxCell id="Igo0mSsp1XI9tSq8-3n3-61" value="\[T_4\]" style="whiteSpace=wrap;html=1;fontSize=16;labelBackgroundColor=none;fontColor=default;fillColor=none;" parent="1" vertex="1">
          <mxGeometry x="320" y="600" width="120" height="40" as="geometry" />
        </mxCell>
        <mxCell id="Igo0mSsp1XI9tSq8-3n3-74" style="edgeStyle=none;shape=connector;rounded=0;orthogonalLoop=1;jettySize=auto;html=1;exitX=0.5;exitY=0;exitDx=0;exitDy=0;entryX=0.5;entryY=1;entryDx=0;entryDy=0;labelBackgroundColor=none;strokeColor=default;align=center;verticalAlign=middle;fontFamily=Helvetica;fontSize=11;fontColor=default;startArrow=classic;startFill=1;endArrow=none;endFill=0;" parent="1" source="Igo0mSsp1XI9tSq8-3n3-62" target="Igo0mSsp1XI9tSq8-3n3-10" edge="1">
          <mxGeometry relative="1" as="geometry" />
        </mxCell>
        <mxCell id="Igo0mSsp1XI9tSq8-3n3-62" value="\[T_5\]" style="whiteSpace=wrap;html=1;fontSize=16;labelBackgroundColor=none;fontColor=default;fillColor=none;" parent="1" vertex="1">
          <mxGeometry x="600" y="600" width="120" height="40" as="geometry" />
        </mxCell>
        <mxCell id="Igo0mSsp1XI9tSq8-3n3-79" style="edgeStyle=none;shape=connector;rounded=0;orthogonalLoop=1;jettySize=auto;html=1;exitX=0.5;exitY=0;exitDx=0;exitDy=0;entryX=0.5;entryY=1;entryDx=0;entryDy=0;labelBackgroundColor=none;strokeColor=default;align=center;verticalAlign=middle;fontFamily=Helvetica;fontSize=11;fontColor=default;startArrow=classic;startFill=1;endArrow=none;endFill=0;" parent="1" source="Igo0mSsp1XI9tSq8-3n3-63" target="Igo0mSsp1XI9tSq8-3n3-11" edge="1">
          <mxGeometry relative="1" as="geometry" />
        </mxCell>
        <mxCell id="Igo0mSsp1XI9tSq8-3n3-63" value="\[T_8\]" style="whiteSpace=wrap;html=1;fontSize=16;labelBackgroundColor=none;fontColor=default;fillColor=none;" parent="1" vertex="1">
          <mxGeometry x="800" y="600" width="120" height="40" as="geometry" />
        </mxCell>
        <mxCell id="Igo0mSsp1XI9tSq8-3n3-80" style="edgeStyle=none;shape=connector;rounded=0;orthogonalLoop=1;jettySize=auto;html=1;exitX=0.5;exitY=0;exitDx=0;exitDy=0;entryX=0.5;entryY=1;entryDx=0;entryDy=0;labelBackgroundColor=none;strokeColor=default;align=center;verticalAlign=middle;fontFamily=Helvetica;fontSize=11;fontColor=default;startArrow=classic;startFill=1;endArrow=none;endFill=0;" parent="1" source="Igo0mSsp1XI9tSq8-3n3-64" target="Igo0mSsp1XI9tSq8-3n3-7" edge="1">
          <mxGeometry relative="1" as="geometry" />
        </mxCell>
        <mxCell id="Igo0mSsp1XI9tSq8-3n3-64" value="\[T_8\]" style="whiteSpace=wrap;html=1;fontSize=16;labelBackgroundColor=none;fontColor=default;fillColor=none;" parent="1" vertex="1">
          <mxGeometry x="960" y="600" width="120" height="40" as="geometry" />
        </mxCell>
      </root>
    </mxGraphModel>
  </diagram>
</mxfile>
